<svg className="overflow-hidden" width="100%" height="100%" viewBox="0 0 32 32" fill="none" xmlns="http://www.w3.org/2000/svg">
  <path fillRule="evenodd" clipRule="evenodd" d="M8.42692 3.36307C8.42692 5.22294 9.92891 6.72613 11.7873 6.72613H15.1477V3.36307C15.1477 1.50319 13.6457 0 11.7873 0C9.92891 0 8.42692 1.50319 8.42692 3.36307ZM15.1477 11.7962C15.1477 9.93633 13.6457 8.43314 11.7873 8.43314H3.36088C1.50248 8.43314 0.000488281 9.93633 0.000488281 11.7962C0.000488281 13.6561 1.50248 15.1593 3.36088 15.1593H11.7873C13.6457 15.1593 15.1477 13.6561 15.1477 11.7962ZM3.38627 23.592C5.24467 23.592 6.74666 22.0888 6.74666 20.2289V16.8659H3.38627C1.52787 16.8659 0.0258789 18.3691 0.0258789 20.2289C0.0258789 22.0888 1.52787 23.592 3.38627 23.592ZM11.7872 16.8659C9.92885 16.8659 8.42685 18.3691 8.42685 20.2289V28.6366C8.42685 30.4965 9.92885 31.9997 11.7872 31.9997C13.6456 31.9997 15.1476 30.4965 15.1476 28.6366V20.2289C15.1476 18.3691 13.6456 16.8659 11.7872 16.8659ZM25.2537 11.7962C25.2537 9.93633 26.7557 8.43314 28.6141 8.43314C30.4725 8.43314 31.9745 9.93633 31.9745 11.7962C31.9745 13.6561 30.4725 15.1593 28.6141 15.1593H25.2537V11.7962ZM23.5735 11.7962C23.5735 13.6561 22.0715 15.1593 20.2131 15.1593C18.3547 15.1593 16.8527 13.6561 16.8527 11.7962V3.36307C16.8527 1.50319 18.3547 0 20.2131 0C22.0715 0 23.5735 1.50319 23.5735 3.36307V11.7962ZM23.5735 28.6366C23.5735 26.7767 22.0715 25.2735 20.2131 25.2735H16.8527V28.6366C16.8527 30.4965 18.3547 31.9997 20.2131 31.9997C22.0715 31.9997 23.5735 30.4965 23.5735 28.6366ZM16.8527 20.2289C16.8527 22.0888 18.3547 23.592 20.2131 23.592H28.6395C30.4979 23.592 31.9999 22.0888 31.9999 20.2289C31.9999 18.3691 30.4979 16.8659 28.6395 16.8659H20.2131C18.3547 16.8659 16.8527 18.3691 16.8527 20.2289Z" fill="#1c1e21"></path>
</svg>
