<svg width="777" height="140" viewBox="0 0 777 140" fill="none" xmlns="http://www.w3.org/2000/svg">
<path d="M64.5894 108.754C54.5356 108.754 46.1885 103.108 39.0603 91.4942C33.626 82.6462 29.3915 71.1418 25.2981 60.0224C20.9353 48.1652 16.4377 35.955 10.9456 28.3453C6.19781 21.7751 2.42523 21.0116 0 21.0116V6.09375H40.7926C49.5953 6.09375 57.3522 10.6429 63.8388 19.6064C70.5306 28.8779 75.3875 42.0697 80.084 54.8253C83.632 64.4625 87.2955 74.4141 91.4851 81.8313L93.5575 85.5014L91.4851 89.1715C88.7519 94.0158 80.4304 108.754 64.5958 108.754H64.5894ZM24.0213 21.0116C30.2127 30.1804 34.8194 42.6985 39.2849 54.8188C46.0281 73.1244 53.6502 93.8297 64.5894 93.8297C67.2905 93.8297 71.3198 92.8609 76.4012 85.2448C72.5516 77.5645 69.2667 68.6587 66.0843 60.0032C61.7279 48.1716 57.2303 35.955 51.7383 28.3453C46.984 21.7751 43.2115 21.0116 40.7862 21.0116H24.0213Z" fill="#F1F0F1"/>
<path d="M105.39 108.754C89.5558 108.754 81.2343 94.0154 78.5011 89.1711L76.4287 85.501L78.5011 81.8309C82.6907 74.4073 86.3542 64.4621 89.8958 54.8441C94.5987 42.0693 99.4556 28.8775 106.147 19.606C112.634 10.6296 120.391 6.08691 129.194 6.08691H169.986V21.0111C167.561 21.0111 163.788 21.7747 159.034 28.3513C153.548 35.9546 149.051 48.1712 144.701 59.9835C140.595 71.1414 136.36 82.6394 130.926 91.4938C123.798 103.107 115.451 108.754 105.397 108.754H105.39ZM93.5786 85.2444C98.66 92.8605 102.689 93.8293 105.39 93.8293C116.33 93.8293 123.952 73.1304 130.676 54.8633C135.154 42.6981 139.767 30.1736 145.952 21.0047H129.187C126.762 21.0047 122.989 21.7683 118.235 28.3449C112.749 35.9482 108.252 48.1648 103.902 59.9771C100.707 68.6519 97.4281 77.5577 93.5786 85.2379V85.2444Z" fill="#F1F0F1"/>
<path d="M219.01 108.824L195.186 6.17647H214.598L224.746 55.4412L231.069 86.9118H231.511L238.864 55.4412L250.629 6.17647H272.101L283.866 55.4412L291.072 86.9118H291.513L297.984 55.4412L308.426 6.17647H326.956L302.396 108.824H280.483L267.395 54.5588L261.071 27.5H260.777L254.159 54.5588L241.07 108.824H219.01Z" fill="#F1F0F1"/>
<path d="M332.3 32.0608H351.124V108.826H332.3V32.0608Z" fill="#F1F0F1"/>
<path d="M364.125 108.824V32.0588H382.949V44.8529H383.685C385.253 40.7353 387.704 37.3039 391.038 34.5588C394.469 31.7157 399.176 30.2941 405.156 30.2941C413.098 30.2941 419.176 32.8921 423.392 38.0882C427.608 43.2843 429.716 50.6863 429.716 60.2941V108.824H410.892V62.2059C410.892 56.7157 409.911 52.598 407.95 49.8529C405.99 47.1078 402.754 45.7353 398.244 45.7353C396.283 45.7353 394.371 46.0294 392.509 46.6176C390.744 47.1078 389.126 47.8922 387.655 48.9706C386.283 49.951 385.155 51.2255 384.273 52.7941C383.391 54.2647 382.949 56.0294 382.949 58.0882V108.824H364.125Z" fill="#F1F0F1"/>
<path d="M511.689 115.294C511.689 119.314 510.954 122.843 509.484 125.882C508.111 129.02 505.806 131.618 502.571 133.676C499.335 135.735 495.168 137.304 490.07 138.382C484.972 139.461 478.746 140 471.393 140C464.922 140 459.432 139.559 454.922 138.676C450.412 137.892 446.686 136.716 443.745 135.147C440.901 133.676 438.843 131.814 437.568 129.559C436.293 127.304 435.656 124.755 435.656 121.912C435.656 117.598 436.833 114.216 439.186 111.765C441.637 109.412 445.019 107.892 449.333 107.206V105.588C446.196 104.804 443.745 103.284 441.98 101.029C440.313 98.6765 439.48 95.9314 439.48 92.7941C439.48 90.8333 439.872 89.1176 440.656 87.6471C441.441 86.0784 442.47 84.7549 443.745 83.6765C445.117 82.598 446.637 81.7157 448.304 81.0294C449.97 80.2451 451.735 79.6569 453.598 79.2647V78.6765C448.892 76.5196 445.362 73.5294 443.009 69.7059C440.754 65.8824 439.627 61.4216 439.627 56.3235C439.627 48.4804 442.323 42.2059 447.715 37.5C453.108 32.6961 461 30.2941 471.393 30.2941C473.746 30.2941 476.05 30.4412 478.305 30.7353C480.658 31.0294 482.815 31.5196 484.776 32.2059V29.7059C484.776 22.2549 488.403 18.5294 495.659 18.5294H507.571V32.9412H491.247V35C495.267 37.2549 498.257 40.1961 500.218 43.8235C502.179 47.451 503.159 51.6176 503.159 56.3235C503.159 64.0686 500.463 70.2941 495.07 75C489.776 79.7059 481.884 82.0588 471.393 82.0588C466.883 82.0588 462.961 81.6176 459.628 80.7353C458.157 81.4216 456.883 82.3529 455.804 83.5294C454.726 84.6078 454.186 85.9804 454.186 87.6471C454.186 91.4706 457.52 93.3823 464.187 93.3823H484.776C494.188 93.3823 501.002 95.3431 505.218 99.2647C509.532 103.088 511.689 108.431 511.689 115.294ZM494.041 117.5C494.041 115.049 493.061 113.137 491.1 111.765C489.139 110.392 485.756 109.706 480.952 109.706H454.775C452.127 111.667 450.804 114.314 450.804 117.647C450.804 120.588 452.029 122.892 454.48 124.559C456.932 126.225 461.098 127.059 466.981 127.059H476.393C482.57 127.059 487.031 126.274 489.776 124.706C492.619 123.137 494.041 120.735 494.041 117.5ZM471.393 69.2647C480.609 69.2647 485.217 65.3431 485.217 57.5V55C485.217 47.1569 480.609 43.2353 471.393 43.2353C462.177 43.2353 457.569 47.1569 457.569 55V57.5C457.569 65.3431 462.177 69.2647 471.393 69.2647Z" fill="#F1F0F1"/>
<path d="M534.767 108.824C528.296 108.824 523.541 107.206 520.502 103.971C517.463 100.735 515.943 96.1765 515.943 90.2941V0H534.767V93.8235H544.915V108.824H534.767Z" fill="#F1F0F1"/>
<path d="M611.776 108.824C607.658 108.824 604.374 107.647 601.922 105.294C599.569 102.843 598.099 99.6078 597.51 95.5882H596.628C595.353 100.588 592.755 104.363 588.834 106.912C584.912 109.363 580.059 110.588 574.274 110.588C566.431 110.588 560.401 108.529 556.185 104.412C551.969 100.294 549.861 94.8039 549.861 87.9412C549.861 80 552.705 74.1176 558.391 70.2941C564.078 66.3725 572.166 64.4118 582.657 64.4118H595.746V58.8235C595.746 54.5098 594.618 51.1765 592.363 48.8235C590.108 46.4706 586.481 45.2941 581.48 45.2941C577.068 45.2941 573.49 46.2745 570.745 48.2353C568.097 50.098 565.842 52.3529 563.98 55L552.803 45C555.646 40.5882 559.421 37.0588 564.127 34.4118C568.833 31.6667 575.059 30.2941 582.804 30.2941C593.197 30.2941 601.089 32.647 606.481 37.3529C611.874 42.0588 614.57 48.8235 614.57 57.647V93.8235H622.217V108.824H611.776ZM580.598 96.9118C584.814 96.9118 588.392 95.9804 591.334 94.1176C594.275 92.2549 595.746 89.5098 595.746 85.8823V75.7353H583.686C573.882 75.7353 568.98 78.8725 568.98 85.147V87.6471C568.98 90.7843 569.96 93.1372 571.921 94.7059C573.98 96.1765 576.872 96.9118 580.598 96.9118Z" fill="#F1F0F1"/>
<path d="M628.629 108.824V32.0588H647.453V44.8529H648.188C649.757 40.7353 652.208 37.3039 655.541 34.5588C658.973 31.7157 663.679 30.2941 669.66 30.2941C677.601 30.2941 683.68 32.8921 687.896 38.0882C692.112 43.2843 694.219 50.6863 694.219 60.2941V108.824H675.395V62.2059C675.395 56.7157 674.415 52.598 672.454 49.8529C670.493 47.1078 667.258 45.7353 662.748 45.7353C660.787 45.7353 658.875 46.0294 657.012 46.6176C655.247 47.1078 653.63 47.8922 652.159 48.9706C650.786 49.951 649.659 51.2255 648.776 52.7941C647.894 54.2647 647.453 56.0294 647.453 58.0882V108.824H628.629Z" fill="#F1F0F1"/>
<path d="M776.192 115.294C776.192 119.314 775.457 122.843 773.986 125.882C772.614 129.02 770.31 131.618 767.074 133.676C763.839 135.735 759.672 137.304 754.574 138.382C749.475 139.461 743.25 140 735.896 140C729.425 140 723.935 139.559 719.425 138.676C714.915 137.892 711.189 136.716 708.248 135.147C705.405 133.676 703.346 131.814 702.071 129.559C700.797 127.304 700.16 124.755 700.16 121.912C700.16 117.598 701.336 114.216 703.689 111.765C706.14 109.412 709.523 107.892 713.837 107.206V105.588C710.699 104.804 708.248 103.284 706.483 101.029C704.817 98.6765 703.983 95.9314 703.983 92.7941C703.983 90.8333 704.375 89.1176 705.16 87.6471C705.944 86.0784 706.974 84.7549 708.248 83.6765C709.621 82.598 711.14 81.7157 712.807 81.0294C714.474 80.2451 716.239 79.6569 718.101 79.2647V78.6765C713.395 76.5196 709.866 73.5294 707.513 69.7059C705.258 65.8824 704.13 61.4216 704.13 56.3235C704.13 48.4804 706.827 42.2059 712.219 37.5C717.611 32.6961 725.504 30.2941 735.896 30.2941C738.249 30.2941 740.553 30.4412 742.808 30.7353C745.161 31.0294 747.318 31.5196 749.279 32.2059V29.7059C749.279 22.2549 752.907 18.5294 760.162 18.5294H772.074V32.9412H755.75V35C759.77 37.2549 762.76 40.1961 764.721 43.8235C766.682 47.451 767.662 51.6176 767.662 56.3235C767.662 64.0686 764.966 70.2941 759.574 75C754.279 79.7059 746.387 82.0588 735.896 82.0588C731.386 82.0588 727.465 81.6176 724.131 80.7353C722.66 81.4216 721.386 82.3529 720.307 83.5294C719.229 84.6078 718.69 85.9804 718.69 87.6471C718.69 91.4706 722.023 93.3823 728.69 93.3823H749.279C758.691 93.3823 765.505 95.3431 769.721 99.2647C774.035 103.088 776.192 108.431 776.192 115.294ZM758.544 117.5C758.544 115.049 757.564 113.137 755.603 111.765C753.642 110.392 750.26 109.706 745.456 109.706H719.278C716.631 111.667 715.307 114.314 715.307 117.647C715.307 120.588 716.533 122.892 718.984 124.559C721.435 126.225 725.602 127.059 731.484 127.059H740.897C747.073 127.059 751.534 126.274 754.279 124.706C757.123 123.137 758.544 120.735 758.544 117.5ZM735.896 69.2647C745.112 69.2647 749.72 65.3431 749.72 57.5V55C749.72 47.1569 745.112 43.2353 735.896 43.2353C726.68 43.2353 722.072 47.1569 722.072 55V57.5C722.072 65.3431 726.68 69.2647 735.896 69.2647Z" fill="#F1F0F1"/>
<path d="M332.3 6.18051H351.125V21.4414H332.3V6.18051Z" fill="#F1F0F1"/>
</svg>
