<svg
  viewBox="0 0 543 140"
  fill="none"
  xmlns="http://www.w3.org/2000/svg"
>
  <path d="M68.0937 108.583C57.4945 108.583 48.6944 102.612 41.1796 90.3288C35.4504 80.9709 30.9861 68.8036 26.6707 57.0434C22.0711 44.5028 17.3295 31.589 11.5395 23.5408C6.53408 16.5919 2.55681 15.7843 0 15.7843V0.00683594H43.0059C52.2861 0.00683594 60.4639 4.81813 67.3023 14.2982C74.3572 24.104 79.4776 38.0561 84.4289 51.5467C88.1694 61.7393 92.0317 72.2644 96.4486 80.1091L98.6334 83.9907L96.4486 87.8723C93.5672 92.9957 84.7942 108.583 68.1005 108.583H68.0937ZM25.3246 15.7843C31.8519 25.4816 36.7085 38.7211 41.4163 51.5399C48.5253 70.9004 56.561 92.7989 68.0937 92.7989C70.9414 92.7989 75.1892 91.7743 80.5464 83.7192C76.4879 75.5964 73.0247 66.1774 69.6698 57.023C65.077 44.5096 60.3354 31.589 54.5453 23.5408C49.5332 16.5919 45.5559 15.7843 42.9991 15.7843H25.3246V15.7843Z" fill="#1c1e21"></path>
  <path d="M111.108 108.583C94.4143 108.583 85.6413 92.9957 82.7599 87.8722L80.5751 83.9906L82.7599 80.109C87.1768 72.2576 91.0391 61.7393 94.7728 51.567C99.7309 38.056 104.851 24.104 111.906 14.2982C118.745 4.80451 126.922 0 136.203 0H179.209V15.7843C176.652 15.7843 172.674 16.5918 167.662 23.5475C161.879 31.5889 157.137 44.5095 152.551 57.0026C148.222 68.8035 143.758 80.9641 138.029 90.3288C130.514 102.611 121.714 108.583 111.115 108.583H111.108ZM98.6554 83.7192C104.013 91.7742 108.26 92.7989 111.108 92.7989C122.641 92.7989 130.676 70.9072 137.765 51.5874C142.486 38.7211 147.35 25.4747 153.87 15.7775H136.196C133.639 15.7775 129.662 16.585 124.65 23.5407C118.866 31.5822 114.125 44.5028 109.539 56.9958C106.17 66.1705 102.714 75.5895 98.6554 83.7124V83.7192Z" fill="#1c1e21"></path>
  <path d="M231.734 108.302L206.899 0H227.135L237.713 51.9788L244.305 85.1831H244.764L252.43 51.9788L264.694 0H287.076L299.34 51.9788L306.852 85.1831H307.312L314.057 51.9788L324.941 0H344.258L318.656 108.302H295.814L282.17 51.0478L275.578 22.4983H275.272L268.373 51.0478L254.729 108.302H231.734Z" fill="#1c1e21"></path>
  <path d="M384.086 108.302V26.4151H403.797V39.4446H404.567C406.209 35.0124 408.776 31.3189 412.266 28.3641C415.859 25.3037 420.787 23.7736 427.049 23.7736C435.365 23.7736 441.73 26.5701 446.144 32.1631C450.558 37.7561 452.766 45.7235 452.766 56.0653V108.302H433.055V58.1231C433.055 52.2135 432.028 47.7813 429.975 44.8265C427.922 41.8717 424.534 40.3943 419.812 40.3943C417.759 40.3943 415.757 40.7109 413.806 41.3441C411.958 41.8717 410.264 42.716 408.725 43.8768C407.287 44.9321 406.107 46.3039 405.183 47.9924C404.259 49.5753 403.797 51.4748 403.797 53.6909V108.302H384.086Z" fill="#1c1e21"></path>
  <path d="M542.989 114.212C542.989 118.407 542.172 122.091 540.537 125.264C539.011 128.538 536.449 131.25 532.852 133.399C529.256 135.548 524.623 137.186 518.955 138.311C513.287 139.437 506.366 140 498.191 140C490.997 140 484.893 139.539 479.879 138.618C474.865 137.8 470.723 136.572 467.453 134.934C464.292 133.399 462.003 131.455 460.586 129.101C459.169 126.748 458.461 124.087 458.461 121.119C458.461 116.616 459.769 113.086 462.385 110.528C465.11 108.071 468.87 106.485 473.666 105.769V104.08C470.178 103.262 467.453 101.676 465.491 99.3219C463.638 96.8658 462.712 94.0005 462.712 90.7258C462.712 88.6791 463.148 85.5675 464.02 84.0324C464.892 82.3951 466.036 81.0136 467.453 79.8879C468.979 78.7622 470.669 77.8412 472.522 77.1249C474.375 76.3062 476.337 75.6922 478.408 75.2828V74.6688C473.176 72.4175 469.252 69.2962 466.636 65.3052C464.129 61.3141 462.875 56.6579 462.875 51.3365C462.875 43.1497 465.873 36.6003 471.868 31.6883C477.863 26.6739 486.637 24.1667 498.191 24.1667C500.807 24.1667 503.368 24.3202 505.875 24.6272C508.491 24.9342 510.889 25.4458 513.069 26.1622V23.5527C513.069 15.7752 517.102 11.8865 525.168 11.8865H538.411V26.9297H520.263V29.0787C524.732 31.4324 528.057 34.5025 530.236 38.2888C532.416 42.0752 533.506 46.4244 533.506 51.3365C533.506 59.4209 530.509 65.9192 524.514 70.8313C518.628 75.7433 509.854 78.1994 498.191 78.1994C493.177 78.1994 488.817 77.7389 485.111 76.8178C483.476 77.5342 482.059 78.5064 480.86 79.7344C479.661 80.8601 479.062 82.2928 479.062 84.0324C479.062 89.3443 482.768 91.3398 490.18 91.3398H513.069C523.533 91.3398 531.109 93.3865 535.795 97.4798C540.591 101.471 542.989 107.048 542.989 114.212ZM523.37 116.514C523.37 113.956 522.28 111.96 520.1 110.528C517.92 109.095 514.159 108.378 508.818 108.378H479.716C476.773 110.425 475.301 113.188 475.301 116.668C475.301 119.738 476.664 122.143 479.389 123.882C482.114 125.622 486.746 126.492 493.286 126.492H503.75C510.617 126.492 515.576 125.673 518.628 124.036C521.789 122.398 523.37 119.891 523.37 116.514ZM498.191 64.8447C508.437 64.8447 513.56 60.7513 513.56 52.5645V49.955C513.56 41.7682 508.437 37.6748 498.191 37.6748C487.945 37.6748 482.822 41.7682 482.822 49.955V52.5645C482.822 60.7513 487.945 64.8447 498.191 64.8447Z" fill="#1c1e21"></path>
  <path d="M351.273 26.4149H369.764V108.302H351.273V26.4149Z" fill="#1c1e21"></path>
  <path d="M351.274 0H369.764V15.8491H351.274V0Z" fill="#1c1e21"></path>
</svg>
